<?xml version="1.0" encoding="UTF-8" standalone="no"?>
<!DOCTYPE svg PUBLIC "-//W3C//DTD SVG 1.1//EN"
 "http://www.w3.org/Graphics/SVG/1.1/DTD/svg11.dtd">
<!-- Generated by graphviz version 2.34.0 (20140110.0949)
 -->
<!-- Title: btree Pages: 1 -->
<svg width="278pt" height="188pt"
 viewBox="0.00 0.00 278.00 188.00" xmlns="http://www.w3.org/2000/svg" xmlns:xlink="http://www.w3.org/1999/xlink">
<g id="graph0" class="graph" transform="scale(1 1) rotate(0) translate(4 184)">
<title>btree</title>
<polygon fill="white" stroke="white" points="-4,4 -4,-184 274,-184 274,4 -4,4"/>
<!-- N3 -->
<g id="node1" class="node"><title>N3</title>
<ellipse fill="none" stroke="black" cx="135" cy="-162" rx="27" ry="18"/>
<text text-anchor="middle" x="135" y="-158.3" font-family="Times,serif" font-size="14.00">3</text>
</g>
<!-- N1 -->
<g id="node2" class="node"><title>N1</title>
<ellipse fill="none" stroke="black" cx="99" cy="-90" rx="27" ry="18"/>
<text text-anchor="middle" x="99" y="-86.3" font-family="Times,serif" font-size="14.00">1</text>
</g>
<!-- N3&#45;&#45;N1 -->
<g id="edge1" class="edge"><title>N3&#45;&#45;N1</title>
<path fill="none" stroke="black" d="M126.65,-144.765C120.835,-133.456 113.11,-118.437 107.304,-107.147"/>
</g>
<!-- N5 -->
<g id="node3" class="node"><title>N5</title>
<ellipse fill="none" stroke="black" cx="171" cy="-90" rx="27" ry="18"/>
<text text-anchor="middle" x="171" y="-86.3" font-family="Times,serif" font-size="14.00">5</text>
</g>
<!-- N3&#45;&#45;N5 -->
<g id="edge2" class="edge"><title>N3&#45;&#45;N5</title>
<path fill="none" stroke="black" d="M143.35,-144.765C149.165,-133.456 156.89,-118.437 162.696,-107.147"/>
</g>
<!-- L0 -->
<g id="node4" class="node"><title>L0</title>
<polygon fill="none" stroke="black" points="54,-36 0,-36 0,-0 54,-0 54,-36"/>
<text text-anchor="middle" x="27" y="-14.3" font-family="Times,serif" font-size="14.00">0</text>
</g>
<!-- N1&#45;&#45;L0 -->
<g id="edge3" class="edge"><title>N1&#45;&#45;L0</title>
<path fill="none" stroke="black" d="M84.4297,-74.8345C72.9242,-63.6486 56.8272,-47.9987 44.6017,-36.1127"/>
</g>
<!-- L2 -->
<g id="node5" class="node"><title>L2</title>
<polygon fill="none" stroke="black" points="126,-36 72,-36 72,-0 126,-0 126,-36"/>
<text text-anchor="middle" x="99" y="-14.3" font-family="Times,serif" font-size="14.00">2</text>
</g>
<!-- N1&#45;&#45;L2 -->
<g id="edge4" class="edge"><title>N1&#45;&#45;L2</title>
<path fill="none" stroke="black" d="M99,-71.6966C99,-60.8463 99,-46.9167 99,-36.1043"/>
</g>
<!-- L4 -->
<g id="node6" class="node"><title>L4</title>
<polygon fill="none" stroke="black" points="198,-36 144,-36 144,-0 198,-0 198,-36"/>
<text text-anchor="middle" x="171" y="-14.3" font-family="Times,serif" font-size="14.00">4</text>
</g>
<!-- N5&#45;&#45;L4 -->
<g id="edge5" class="edge"><title>N5&#45;&#45;L4</title>
<path fill="none" stroke="black" d="M171,-71.6966C171,-60.8463 171,-46.9167 171,-36.1043"/>
</g>
<!-- L6 -->
<g id="node7" class="node"><title>L6</title>
<polygon fill="none" stroke="black" points="270,-36 216,-36 216,-0 270,-0 270,-36"/>
<text text-anchor="middle" x="243" y="-14.3" font-family="Times,serif" font-size="14.00">6</text>
</g>
<!-- N5&#45;&#45;L6 -->
<g id="edge6" class="edge"><title>N5&#45;&#45;L6</title>
<path fill="none" stroke="black" d="M185.57,-74.8345C197.076,-63.6486 213.173,-47.9987 225.398,-36.1127"/>
</g>
</g>
</svg>
