<?xml version="1.0" encoding="UTF-8" standalone="no"?>
<!DOCTYPE svg PUBLIC "-//W3C//DTD SVG 1.1//EN"
 "http://www.w3.org/Graphics/SVG/1.1/DTD/svg11.dtd">
<!-- Generated by graphviz version 2.34.0 (20140110.0949)
 -->
<!-- Title: btree Pages: 1 -->
<svg width="134pt" height="116pt"
 viewBox="0.00 0.00 134.00 116.00" xmlns="http://www.w3.org/2000/svg" xmlns:xlink="http://www.w3.org/1999/xlink">
<g id="graph0" class="graph" transform="scale(1 1) rotate(0) translate(4 112)">
<title>btree</title>
<polygon fill="white" stroke="white" points="-4,4 -4,-112 130,-112 130,4 -4,4"/>
<!-- N1 -->
<g id="node1" class="node"><title>N1</title>
<ellipse fill="none" stroke="black" cx="63" cy="-90" rx="27" ry="18"/>
<text text-anchor="middle" x="63" y="-86.3" font-family="Times,serif" font-size="14.00">1</text>
</g>
<!-- L2 -->
<g id="node2" class="node"><title>L2</title>
<polygon fill="none" stroke="black" points="54,-36 0,-36 0,-0 54,-0 54,-36"/>
<text text-anchor="middle" x="27" y="-14.3" font-family="Times,serif" font-size="14.00">2</text>
</g>
<!-- N1&#45;&#45;L2 -->
<g id="edge1" class="edge"><title>N1&#45;&#45;L2</title>
<path fill="none" stroke="black" d="M54.6504,-72.7646C49.0007,-61.7791 41.5501,-47.2919 35.8066,-36.1239"/>
</g>
<!-- L3 -->
<g id="node3" class="node"><title>L3</title>
<polygon fill="none" stroke="black" points="126,-36 72,-36 72,-0 126,-0 126,-36"/>
<text text-anchor="middle" x="99" y="-14.3" font-family="Times,serif" font-size="14.00">3</text>
</g>
<!-- N1&#45;&#45;L3 -->
<g id="edge2" class="edge"><title>N1&#45;&#45;L3</title>
<path fill="none" stroke="black" d="M71.3496,-72.7646C76.9993,-61.7791 84.4499,-47.2919 90.1934,-36.1239"/>
</g>
</g>
</svg>
